Coordinates
version=1
nRows=14
nColumns=24
inDegrees=yes

Units are S.I. units (second, meters, Newtons, ...)
Angles are in degrees.

endheader
time	pelvis_tilt	pelvis_list	pelvis_rotation	pelvis_tx	pelvis_ty	pelvis_tz	hip_flexion_r	hip_adduction_r	hip_rotation_r	knee_angle_r	ankle_angle_r	subtalar_angle_r	mtp_angle_r	hip_flexion_l	hip_adduction_l	hip_rotation_l	knee_angle_l	ankle_angle_l	subtalar_angle_l	mtp_angle_l	lumbar_extension	lumbar_bending	lumbar_rotation
      0.56700000	     -0.61663418	      2.03359364	      6.62523327	     -0.76386757	      0.96294619	      0.31401431	     29.03950295	     -2.10817567	     -4.21956677	     -4.31637847	      6.27500957	    -12.04778210	     -0.04522006	    -20.57672782	      3.55925237	      7.34288891	     -2.13002251	     13.16964210	     -7.42544498	      0.40906970	      1.15020117	     -0.14292778	     -3.02585694
      0.57116667	     -0.68914257	      1.90478229	      6.69180608	     -0.75762616	      0.96176383	      0.31419354	     29.28200534	     -1.97803399	     -4.20434655	     -4.83552836	      6.19154547	    -12.54296874	     -0.08775829	    -20.77675513	      3.35968295	      7.13149155	     -2.32429872	     13.27962514	     -7.09844266	      0.47958803	      1.29432894	      0.01871957	     -3.01308636
      0.57533333	     -0.71558566	      1.77318491	      6.74255611	     -0.75132835	      0.96066247	      0.31436528	     29.50550710	     -1.84699066	     -4.29684170	     -5.46327035	      6.02752958	    -12.77254401	     -0.09991401	    -21.05670813	      3.16074647	      7.00948608	     -2.45772450	     13.25289081	     -7.04728405	      0.49346179	      1.37041709	      0.17412936	     -3.05514254
      0.57950000	     -0.82893184	      1.62519224	      6.81163800	     -0.74501212	      0.95948411	      0.31456498	     29.79227178	     -1.69766214	     -4.22172060	     -6.09375451	      5.86194501	    -13.42801078	     -0.13417329	    -21.15185796	      2.94373507	      6.71587643	     -2.77658556	     13.41358071	     -6.51894781	      0.59314522	      1.56799300	      0.36809955	     -3.22140739
      0.58366667	     -0.86975200	      1.46039340	      6.84362048	     -0.73863042	      0.95841943	      0.31481440	     30.00880328	     -1.51013013	     -4.17098360	     -6.77091598	      5.57326013	    -13.99343799	     -0.17185504	    -21.34202501	      2.71349203	      6.41998765	     -3.05650887	     13.47051251	     -6.17252092	      0.72854631	      1.66576248	      0.56831894	     -3.25927425
      0.58783333	     -0.96564936	      1.30800366	      6.88094019	     -0.73219959	      0.95731819	      0.31503338	     30.30815350	     -1.35111047	     -4.17074831	     -7.54646107	      5.29075337	    -14.45545671	     -0.19619043	    -21.48532023	      2.50495710	      6.23770828	     -3.31886180	     13.47487492	     -5.94028952	      0.83612944	      1.85808292	      0.76430857	     -3.31799997
      0.59200000	     -1.04729032	      1.14215580	      6.89763599	     -0.72572215	      0.95626268	      0.31530552	     30.58483278	     -1.16102834	     -4.12721727	     -8.33764947	      4.93550632	    -14.99932062	     -0.21788577	    -21.61685115	      2.28585717	      5.98907079	     -3.63343025	     13.48626883	     -5.64698729	      0.96624381	      2.02466421	      0.96522809	     -3.37014031
      0.59616667	     -1.13439284	      0.97050232	      6.90475311	     -0.71920730	      0.95523789	      0.31559439	     30.86826031	     -0.95953279	     -4.07774978	     -9.16288779	      4.52972876	    -15.56237808	     -0.23666714	    -21.72833532	      2.06556678	      5.73011618	     -3.97719786	     13.47728676	     -5.36681406	      1.11488798	      2.20027133	      1.17955944	     -3.40783094
      0.60033333	     -1.20028695	      0.79765699	      6.89536975	     -0.71265921	      0.95428583	      0.31591709	     31.12299574	     -0.74250406	     -4.00084937	    -10.00295606	      4.09597276	    -16.17373939	     -0.25499261	    -21.83632723	      1.84783389	      5.43676161	     -4.36926624	     13.43130150	     -5.10177760	      1.32567209	      2.34626056	      1.39919667	     -3.43704682
      0.60450000	     -1.22425183	      0.62551667	      6.87205005	     -0.70602306	      0.95341198	      0.31620254	     31.36682057	     -0.53892831	     -4.07997940	    -10.94232010	      3.70987777	    -16.39813756	     -0.26468494	    -22.05259972	      1.63759628	      5.29387364	     -4.64244158	     13.27027977	     -5.09332473	      1.35361869	      2.45963291	      1.62552769	     -3.45875754
      0.60866667	     -1.37599788	      0.43384421	      6.85781867	     -0.69940899	      0.95245534	      0.31659548	     31.68317128	     -0.28827867	     -3.89708755	    -11.76439892	      3.14407887	    -17.28788299	     -0.28191664	    -21.99063618	      1.40703516	      4.92241910	     -5.18476429	     13.24567483	     -4.63661509	      1.64799177	      2.72534675	      1.85895944	     -3.47746741
      0.61283333	     -1.46645803	      0.23174398	      6.81853647	     -0.69270484	      0.95161298	      0.31698578	     31.95173044	     -0.02473883	     -3.82355490	    -12.64177080	      2.60044395	    -17.88360305	     -0.30431302	    -22.04585334	      1.17152217	      4.64416713	     -5.62682509	     13.10442760	     -4.38324438	      2.04685694	      2.92880039	      2.11041581	     -3.47685430
      0.61700000	     -1.48721303	      0.05206023	      6.76950996	     -0.68598066	      0.95090608	      0.31732389	     32.17841723	      0.20098963	     -3.89089988	    -13.60974752	      2.15913483	    -18.04821508	     -0.31435389	    -22.19713507	      0.96757077	      4.48465779	     -6.02567611	     12.86324208	     -4.42890830	      2.08196722	      3.03759172	      2.35502634	     -3.49167833
      0.62116667	     -1.65543877	     -0.15254869	      6.72911270	     -0.67926814	      0.95009690	      0.31778224	     32.50106116	      0.47916489	     -3.72566314	    -14.45501242	      1.54594308	    -18.82568504	     -0.34542164	    -22.07304254	      0.73461844	      4.14141265	     -6.64685496	     12.70382820	     -4.07927697	      2.47308808	      3.32830565	      2.59628390	     -3.46702624
